<svg xmlns="http://www.w3.org/2000/svg" xmlns:xlink="http://www.w3.org/1999/xlink" width="500" zoomAndPan="magnify" viewBox="0 0 375 374.999991" height="500" preserveAspectRatio="xMidYMid meet" version="1.0"><defs><clipPath id="94516a7671"><path d="M 8.816406 61.75 L 365.066406 61.75 L 365.066406 313 L 8.816406 313 Z M 8.816406 61.75 " clip-rule="nonzero"/></clipPath></defs><g clip-path="url(#94516a7671)"><path fill="#ff0000" d="M 357.289062 101.167969 C 356.78125 99.285156 356.148438 97.441406 355.398438 95.636719 C 354.648438 93.835938 353.785156 92.089844 352.808594 90.398438 C 351.832031 88.707031 350.75 87.089844 349.5625 85.539062 C 348.375 83.992188 347.089844 82.527344 345.714844 81.144531 C 344.335938 79.765625 342.875 78.480469 341.328125 77.289062 C 339.785156 76.097656 338.167969 75.015625 336.480469 74.035156 C 334.796875 73.054688 333.050781 72.191406 331.253906 71.4375 C 329.453125 70.6875 327.613281 70.054688 325.734375 69.546875 C 298.070312 61.976562 186.71875 61.976562 186.71875 61.976562 C 186.71875 61.976562 75.363281 62.199219 47.691406 69.769531 C 45.8125 70.28125 43.972656 70.910156 42.171875 71.664062 C 40.375 72.414062 38.628906 73.28125 36.945312 74.257812 C 35.257812 75.238281 33.640625 76.324219 32.097656 77.511719 C 30.550781 78.703125 29.089844 79.988281 27.710938 81.371094 C 26.332031 82.75 25.050781 84.214844 23.863281 85.765625 C 22.675781 87.3125 21.59375 88.929688 20.617188 90.621094 C 19.640625 92.3125 18.777344 94.058594 18.027344 95.859375 C 17.277344 97.664062 16.644531 99.507812 16.136719 101.390625 C 8.816406 129.121094 8.816406 187.097656 8.816406 187.097656 C 8.816406 187.097656 8.816406 245.074219 16.363281 273.027344 C 16.875 274.910156 17.503906 276.753906 18.253906 278.558594 C 19.003906 280.359375 19.867188 282.105469 20.84375 283.796875 C 21.820312 285.484375 22.902344 287.105469 24.089844 288.652344 C 25.28125 290.203125 26.5625 291.667969 27.941406 293.046875 C 29.320312 294.429688 30.78125 295.714844 32.324219 296.90625 C 33.871094 298.09375 35.488281 299.179688 37.171875 300.160156 C 38.859375 301.136719 40.601562 302.003906 42.402344 302.753906 C 44.199219 303.507812 46.039062 304.136719 47.921875 304.648438 C 75.585938 312.21875 186.941406 312.21875 186.941406 312.21875 C 186.941406 312.21875 298.296875 312.21875 325.96875 304.65625 C 327.847656 304.144531 329.6875 303.511719 331.488281 302.761719 C 333.285156 302.007812 335.027344 301.144531 336.714844 300.164062 C 338.402344 299.183594 340.015625 298.101562 341.5625 296.910156 C 343.109375 295.71875 344.570312 294.433594 345.949219 293.054688 C 347.324219 291.671875 348.609375 290.207031 349.796875 288.660156 C 350.984375 287.109375 352.066406 285.492188 353.042969 283.800781 C 354.019531 282.113281 354.882812 280.367188 355.632812 278.5625 C 356.382812 276.761719 357.011719 274.917969 357.523438 273.03125 C 365.066406 245.300781 365.066406 187.097656 365.066406 187.097656 C 365.066406 187.097656 364.84375 129.121094 357.289062 101.167969 Z M 357.289062 101.167969 " fill-opacity="1" fill-rule="nonzero"/></g><path fill="#ffffff" d="M 151.273438 240.714844 L 243.644531 187.097656 L 151.265625 133.476562 Z M 151.273438 240.714844 " fill-opacity="1" fill-rule="nonzero"/></svg>